<svg width="76" height="30" viewBox="0 0 76 30" fill="none" xmlns="http://www.w3.org/2000/svg">
<path d="M38.968 10.2742L42.5589 10.0424C42.6409 10.6288 42.791 11.0653 43.0368 11.379C43.4328 11.8699 43.9789 12.1154 44.7026 12.1154C45.2351 12.1154 45.6584 11.9927 45.9451 11.7336C46.2182 11.529 46.382 11.2017 46.382 10.8607C46.382 10.5334 46.2318 10.2197 45.9724 10.0151C45.6993 9.7696 45.0576 9.52411 44.0472 9.30589C42.3951 8.93765 41.2072 8.44666 40.5109 7.81929C39.8145 7.23283 39.4186 6.3736 39.4459 5.45981C39.4459 4.83244 39.637 4.20506 39.992 3.6868C40.4016 3.10034 40.9614 2.63663 41.6305 2.37749C42.3541 2.06381 43.3645 1.90014 44.6343 1.90014C46.1908 1.90014 47.3787 2.18655 48.198 2.77301C49.0172 3.34583 49.5087 4.27326 49.6589 5.54164L46.1089 5.74622C46.0134 5.20068 45.8222 4.80516 45.5082 4.54603C45.1941 4.28689 44.7845 4.16415 44.252 4.16415C43.8151 4.16415 43.4874 4.25962 43.2689 4.43692C43.0641 4.60058 42.9276 4.84608 42.9412 5.11885C42.9412 5.32343 43.0505 5.51437 43.2143 5.63711C43.3918 5.80078 43.8151 5.9508 44.4841 6.08719C46.1362 6.44179 47.3105 6.79639 48.0341 7.16463C48.7578 7.53288 49.2766 7.98295 49.5907 8.51485C49.9183 9.0604 50.0822 9.68777 50.0685 10.3288C50.0685 11.0925 49.8501 11.8563 49.4132 12.4973C48.9626 13.1656 48.3345 13.6839 47.5972 13.9976C46.8189 14.3385 45.8359 14.5158 44.6616 14.5158C42.5862 14.5158 41.1526 14.1203 40.347 13.3156C39.5414 12.511 39.0636 11.5017 38.968 10.2742ZM0.86019 14.3112V2.11836H7.1546C8.31517 2.11836 9.21632 2.21383 9.83075 2.41841C10.4315 2.60935 10.964 3.00487 11.319 3.53677C11.715 4.12323 11.9061 4.80516 11.8925 5.51437C11.9334 6.71456 11.319 7.8602 10.2677 8.4603C9.85805 8.69215 9.40748 8.85582 8.94325 8.93765C9.28459 9.03312 9.62594 9.19678 9.92632 9.38772C10.1584 9.57866 10.3496 9.79688 10.5271 10.0287C10.7319 10.2606 10.9094 10.5197 11.0596 10.7925L12.8892 14.3249H8.6019L6.58114 10.5743C6.32172 10.0969 6.10325 9.78324 5.89845 9.63322C5.62537 9.44228 5.29768 9.34681 4.96999 9.34681H4.6423V14.2976H0.86019V14.3112ZM4.6423 7.05553H6.23979C6.58114 7.02825 6.90883 6.97369 7.23652 6.89186C7.48229 6.85095 7.70075 6.71456 7.85094 6.50998C8.2196 6.01899 8.16498 5.32343 7.7144 4.90063C7.46864 4.69605 6.99075 4.58694 6.30806 4.58694H4.6423V7.05553ZM0 24.7584L3.59095 24.5265C3.67288 25.113 3.82307 25.5494 4.06884 25.8631C4.45114 26.3541 5.01095 26.6132 5.7346 26.6132C6.2671 26.6132 6.69037 26.4905 6.9771 26.2314C7.25017 26.0131 7.41402 25.6995 7.41402 25.3585C7.41402 25.0312 7.26383 24.7175 7.00441 24.5129C6.73133 24.2674 6.0896 24.0219 5.06556 23.8037C3.41345 23.4355 2.22557 22.9445 1.52923 22.3171C0.832883 21.7306 0.436922 20.8714 0.46423 19.9576C0.46423 19.3302 0.655383 18.7029 1.01038 18.1846C1.42 17.5981 1.9798 17.1344 2.64884 16.8753C3.37249 16.5616 4.38287 16.3979 5.65268 16.3979C7.20921 16.3979 8.39709 16.6844 9.21632 17.2708C10.0356 17.8573 10.5134 18.7711 10.6636 20.0394L7.11364 20.244C7.01806 19.6985 6.82691 19.303 6.51287 19.0438C6.21248 18.7847 5.78922 18.662 5.25672 18.6756C4.8198 18.6756 4.4921 18.7711 4.27364 18.962C4.05518 19.1257 3.9323 19.3712 3.94595 19.6439C3.94595 19.8485 4.05518 20.0394 4.21903 20.1622C4.39653 20.3259 4.8198 20.4759 5.48883 20.6123C7.14094 20.9669 8.31517 21.3215 9.03882 21.6897C9.76248 22.058 10.2813 22.508 10.5954 23.0399C10.923 23.5855 11.0869 24.2129 11.0869 24.8402C11.0869 25.604 10.8548 26.3541 10.4315 26.9951C9.98094 27.6634 9.35286 28.1817 8.61556 28.4954C7.83729 28.8363 6.85421 29.0136 5.67999 29.0136C3.60461 29.0136 2.17096 28.6181 1.36538 27.8134C0.559806 26.9951 0.109231 25.9859 0 24.7584Z" fill="white"/>
<path d="M18.1596 23.8037L21.4638 24.7993C21.2863 25.6313 20.9176 26.4223 20.4125 27.1179C19.9482 27.7316 19.3338 28.209 18.6375 28.5226C17.9275 28.8363 17.0263 29 15.934 29C14.6096 29 13.5173 28.8091 12.6844 28.4272C11.8379 28.0453 11.1142 27.3634 10.4998 26.395C9.88536 25.4267 9.58498 24.1856 9.58498 22.6717C9.58498 20.6532 10.1175 19.0984 11.1961 18.0209C12.2748 16.9435 13.7904 16.398 15.7565 16.398C17.2994 16.398 18.5009 16.7116 19.3884 17.3254C20.2623 17.9527 20.9176 18.9074 21.3546 20.1895L18.023 20.926C17.9411 20.6396 17.8182 20.3531 17.6544 20.1076C17.4496 19.8212 17.1902 19.603 16.8761 19.4394C16.5621 19.2757 16.2071 19.2075 15.8521 19.2075C14.9919 19.2075 14.3365 19.5485 13.8859 20.244C13.5446 20.7487 13.3671 21.5533 13.3671 22.6444C13.3671 23.9946 13.5719 24.9221 13.9815 25.4267C14.3911 25.9313 14.9646 26.1768 15.7155 26.1768C16.4392 26.1768 16.9853 25.9722 17.354 25.5767C17.7227 25.1539 17.9957 24.5675 18.1596 23.8037ZM25.874 16.6025H29.6424V20.8714H33.7659V16.6025H37.5616V28.7954H33.7659V23.8583H29.6424V28.7954H25.874V16.6025Z" fill="white"/>
<path d="M37.0428 22.699C37.0428 20.7077 37.6026 19.1529 38.7086 18.0482C39.8145 16.9435 41.3711 16.3843 43.3509 16.3843C45.3853 16.3843 46.9418 16.9299 48.0478 18.0209C49.1537 19.112 49.6999 20.6395 49.6999 22.6035C49.6999 24.0356 49.4541 25.1948 48.9762 26.1086C48.512 27.0088 47.7883 27.7452 46.9009 28.2362C45.986 28.7409 44.8528 29 43.5011 29C42.122 29 40.9888 28.7818 40.0876 28.3453C39.1591 27.8816 38.3945 27.1588 37.8893 26.2723C37.3295 25.3176 37.0428 24.131 37.0428 22.699ZM40.8112 22.7126C40.8112 23.9401 41.0434 24.8266 41.4939 25.3721C41.9445 25.904 42.5726 26.1768 43.3645 26.1768C44.1701 26.1768 44.7982 25.9177 45.2487 25.3858C45.6993 24.8539 45.9178 23.9128 45.9178 22.549C45.9178 21.4033 45.6857 20.5577 45.2214 20.0395C44.7572 19.5075 44.1291 19.2484 43.3372 19.2484C42.6409 19.2211 41.9718 19.5212 41.5076 20.0531C41.0434 20.585 40.8112 21.4715 40.8112 22.7126ZM53.5639 22.699C53.5639 20.7077 54.1237 19.1529 55.2297 18.0482C56.3356 16.9435 57.8922 16.3843 59.872 16.3843C61.9064 16.3843 63.4766 16.9299 64.5689 18.0209C65.6612 19.112 66.221 20.6395 66.221 22.6035C66.221 24.0356 65.9752 25.1948 65.4973 26.1086C65.0331 27.0088 64.3095 27.7452 63.422 28.2362C62.5072 28.7409 61.3739 29 60.0222 29C58.6431 29 57.5099 28.7818 56.6087 28.3453C55.6803 27.8816 54.9156 27.1588 54.4104 26.2723C53.8506 25.3176 53.5639 24.131 53.5639 22.699ZM57.3324 22.7126C57.3324 23.9401 57.5645 24.8266 58.0151 25.3721C58.4656 25.904 59.0937 26.1768 59.8856 26.1768C60.6912 26.1768 61.3193 25.9177 61.7699 25.3858C62.2204 24.8539 62.4389 23.9128 62.4389 22.549C62.4389 21.4033 62.2068 20.5577 61.7425 20.0395C61.2783 19.5075 60.6502 19.2484 59.8583 19.2484C59.162 19.2211 58.4793 19.5212 58.0287 20.0531C57.5645 20.585 57.3324 21.4715 57.3324 22.7126Z" fill="white"/>
<path d="M69.5935 16.6025V25.7949H75.4783V28.7954H65.8114V16.6025H69.5935Z" fill="white"/>
<path fill-rule="evenodd" clip-rule="evenodd" d="M54.3628 6.21125C51.144 8.63419 50.6675 12.2693 52.143 14.2251C53.6185 16.1808 57.248 16.7252 60.4668 14.3023C63.6857 11.8793 64.1621 8.24423 62.6866 6.28846C61.2111 4.3327 57.5816 3.7883 54.3628 6.21125ZM48.9472 16.6307C45.7211 12.3543 47.5845 6.30693 51.9538 3.01804C56.323 -0.27085 62.6562 -0.393482 65.8824 3.88286C69.1086 8.1592 67.2451 14.2066 62.8759 17.4955C58.5066 20.7844 52.1734 20.907 48.9472 16.6307Z" fill="white"/>
<path d="M53.5775 9.36045L54.9429 8.40574L56.6224 10.7925C56.9091 11.1744 57.1275 11.5835 57.2914 12.0336C57.387 12.3746 57.3597 12.7428 57.2231 13.0701C57.0456 13.4793 56.7589 13.8203 56.3766 14.0658C55.926 14.3794 55.5437 14.5567 55.216 14.6113C54.902 14.6659 54.5743 14.6113 54.2739 14.4749C53.9462 14.3112 53.6595 14.0794 53.441 13.7793L54.6152 12.6883C54.7108 12.8383 54.8337 12.9747 54.9702 13.0838C55.0658 13.152 55.175 13.1929 55.2979 13.1929C55.3935 13.1929 55.4891 13.152 55.5574 13.0974C55.6939 13.0156 55.7895 12.8519 55.7758 12.6883C55.7349 12.4564 55.6393 12.2245 55.4891 12.0472L53.5775 9.36045ZM57.6737 10.8743L58.9162 9.89235C59.0527 10.056 59.2302 10.1788 59.4214 10.247C59.6945 10.3288 59.9812 10.2742 60.2133 10.0969C60.3771 9.98782 60.5137 9.8378 60.5683 9.64686C60.6502 9.40136 60.5137 9.12859 60.2679 9.04676C60.227 9.03312 60.186 9.01948 60.145 9.01948C59.9812 9.00584 59.6945 9.07403 59.2712 9.25134C58.5748 9.53775 58.0287 9.64685 57.6191 9.60594C57.2231 9.56502 56.8545 9.36045 56.636 9.01948C56.4722 8.78763 56.3902 8.51485 56.3766 8.24208C56.3766 7.92839 56.4585 7.61471 56.636 7.35557C56.8954 6.98733 57.2095 6.67365 57.5918 6.42815C58.1652 6.03263 58.6704 5.84169 59.1073 5.84169C59.5443 5.84169 59.9539 6.04627 60.3362 6.46907L59.1073 7.43741C58.8616 7.12372 58.3973 7.05553 58.0833 7.30102L58.0423 7.34194C57.9058 7.42377 57.8102 7.54651 57.7556 7.69654C57.7147 7.80565 57.742 7.92839 57.8102 8.02386C57.8648 8.09206 57.9468 8.14661 58.0423 8.14661C58.1516 8.16025 58.3427 8.1057 58.6158 7.98295C59.2985 7.69654 59.8173 7.53288 60.1723 7.47832C60.4727 7.42377 60.7868 7.45104 61.0735 7.57379C61.3329 7.6829 61.5514 7.87384 61.7016 8.1057C61.8927 8.37847 62.002 8.70579 62.0156 9.04676C62.0293 9.40136 61.9337 9.74233 61.7425 10.0424C61.4968 10.4106 61.1827 10.7243 60.8141 10.9698C60.0631 11.4881 59.4487 11.7063 58.9571 11.6244C58.4247 11.5426 57.9877 11.2698 57.6737 10.8743Z" fill="white"/>
</svg>
